<mxfile host="app.diagrams.net" modified="2021-03-04T12:48:10.726Z" agent="5.0 (Macintosh; Intel Mac OS X 10_15_7) AppleWebKit/537.36 (KHTML, like Gecko) Chrome/88.0.4324.192 Safari/537.36" etag="I3nj_zCfbxLFoiF45LEW" version="14.4.3" type="github">
  <diagram id="CFKXBsebpFjmSlSXYvdA" name="Page-1">
    <mxGraphModel dx="1796" dy="481" grid="1" gridSize="10" guides="1" tooltips="1" connect="1" arrows="1" fold="1" page="1" pageScale="1" pageWidth="850" pageHeight="1100" math="0" shadow="0">
      <root>
        <mxCell id="0" />
        <mxCell id="1" parent="0" />
        <mxCell id="pFfiCdRPxZVRYwWleE4n-17" value="" style="group" vertex="1" connectable="0" parent="1">
          <mxGeometry x="80.00000000000023" y="250" width="430" height="320" as="geometry" />
        </mxCell>
        <mxCell id="pFfiCdRPxZVRYwWleE4n-18" value="" style="rounded=0;whiteSpace=wrap;html=1;fillColor=#dae8fc;strokeColor=#6c8ebf;" vertex="1" parent="pFfiCdRPxZVRYwWleE4n-17">
          <mxGeometry width="430" height="320" as="geometry" />
        </mxCell>
        <mxCell id="pFfiCdRPxZVRYwWleE4n-19" value="Comment" style="rounded=1;whiteSpace=wrap;html=1;fillColor=#0050ef;strokeColor=#001DBC;fontColor=#ffffff;" vertex="1" parent="pFfiCdRPxZVRYwWleE4n-17">
          <mxGeometry x="170" y="280" width="90" height="30" as="geometry" />
        </mxCell>
        <mxCell id="pFfiCdRPxZVRYwWleE4n-20" value="Like" style="rounded=1;whiteSpace=wrap;html=1;fillColor=#0050ef;strokeColor=#001DBC;fontColor=#ffffff;" vertex="1" parent="pFfiCdRPxZVRYwWleE4n-17">
          <mxGeometry x="25" y="280" width="90" height="30" as="geometry" />
        </mxCell>
        <mxCell id="pFfiCdRPxZVRYwWleE4n-21" value="Media" style="rounded=0;whiteSpace=wrap;html=1;fillColor=#fff2cc;strokeColor=#d6b656;" vertex="1" parent="pFfiCdRPxZVRYwWleE4n-17">
          <mxGeometry x="25" y="90" width="380" height="80" as="geometry" />
        </mxCell>
        <mxCell id="pFfiCdRPxZVRYwWleE4n-22" value="Text Content" style="rounded=0;whiteSpace=wrap;html=1;" vertex="1" parent="pFfiCdRPxZVRYwWleE4n-17">
          <mxGeometry x="25" y="190" width="380" height="50" as="geometry" />
        </mxCell>
        <mxCell id="pFfiCdRPxZVRYwWleE4n-23" value="" style="rounded=0;whiteSpace=wrap;html=1;" vertex="1" parent="pFfiCdRPxZVRYwWleE4n-17">
          <mxGeometry x="25" y="15" width="380" height="60" as="geometry" />
        </mxCell>
        <mxCell id="pFfiCdRPxZVRYwWleE4n-24" value="DP" style="ellipse;whiteSpace=wrap;html=1;fillColor=#f8cecc;strokeColor=#b85450;" vertex="1" parent="pFfiCdRPxZVRYwWleE4n-17">
          <mxGeometry x="45" y="15" width="70" height="55" as="geometry" />
        </mxCell>
        <mxCell id="pFfiCdRPxZVRYwWleE4n-25" value="User Name" style="text;html=1;strokeColor=none;fillColor=none;align=center;verticalAlign=middle;whiteSpace=wrap;rounded=0;fontStyle=1;fontSize=15;" vertex="1" parent="pFfiCdRPxZVRYwWleE4n-17">
          <mxGeometry x="115" y="32.5" width="90" height="20" as="geometry" />
        </mxCell>
        <mxCell id="pFfiCdRPxZVRYwWleE4n-26" value="Date" style="text;html=1;strokeColor=none;fillColor=none;align=center;verticalAlign=middle;whiteSpace=wrap;rounded=0;" vertex="1" parent="pFfiCdRPxZVRYwWleE4n-17">
          <mxGeometry x="354.9999999999998" y="33" width="40" height="20" as="geometry" />
        </mxCell>
        <mxCell id="pFfiCdRPxZVRYwWleE4n-27" value="Share" style="rounded=1;whiteSpace=wrap;html=1;fillColor=#0050ef;strokeColor=#001DBC;fontColor=#ffffff;" vertex="1" parent="pFfiCdRPxZVRYwWleE4n-17">
          <mxGeometry x="315" y="280" width="90" height="30" as="geometry" />
        </mxCell>
        <mxCell id="pFfiCdRPxZVRYwWleE4n-39" value="" style="group" vertex="1" connectable="0" parent="1">
          <mxGeometry x="-470" y="350" width="396" height="300" as="geometry" />
        </mxCell>
        <mxCell id="pFfiCdRPxZVRYwWleE4n-40" value="" style="group" vertex="1" connectable="0" parent="pFfiCdRPxZVRYwWleE4n-39">
          <mxGeometry width="395" height="60" as="geometry" />
        </mxCell>
        <mxCell id="pFfiCdRPxZVRYwWleE4n-41" value="Comment #1" style="rounded=0;whiteSpace=wrap;html=1;fontSize=15;fillColor=#dae8fc;strokeColor=#6c8ebf;" vertex="1" parent="pFfiCdRPxZVRYwWleE4n-40">
          <mxGeometry width="395" height="60" as="geometry" />
        </mxCell>
        <mxCell id="pFfiCdRPxZVRYwWleE4n-42" value="User 1" style="ellipse;whiteSpace=wrap;html=1;fontSize=15;fillColor=#d5e8d4;strokeColor=#82b366;" vertex="1" parent="pFfiCdRPxZVRYwWleE4n-40">
          <mxGeometry x="15" y="5" width="70" height="50" as="geometry" />
        </mxCell>
        <mxCell id="pFfiCdRPxZVRYwWleE4n-43" value="" style="group" vertex="1" connectable="0" parent="pFfiCdRPxZVRYwWleE4n-39">
          <mxGeometry x="1" y="60" width="395" height="60" as="geometry" />
        </mxCell>
        <mxCell id="pFfiCdRPxZVRYwWleE4n-44" value="Comment #2" style="rounded=0;whiteSpace=wrap;html=1;fontSize=15;fillColor=#dae8fc;strokeColor=#6c8ebf;" vertex="1" parent="pFfiCdRPxZVRYwWleE4n-43">
          <mxGeometry width="395" height="60" as="geometry" />
        </mxCell>
        <mxCell id="pFfiCdRPxZVRYwWleE4n-45" value="User 2" style="ellipse;whiteSpace=wrap;html=1;fontSize=15;fillColor=#d5e8d4;strokeColor=#82b366;" vertex="1" parent="pFfiCdRPxZVRYwWleE4n-43">
          <mxGeometry x="15" y="5" width="70" height="50" as="geometry" />
        </mxCell>
        <mxCell id="pFfiCdRPxZVRYwWleE4n-46" value="" style="group" vertex="1" connectable="0" parent="pFfiCdRPxZVRYwWleE4n-39">
          <mxGeometry y="120" width="395" height="60" as="geometry" />
        </mxCell>
        <mxCell id="pFfiCdRPxZVRYwWleE4n-47" value="Comment #3" style="rounded=0;whiteSpace=wrap;html=1;fontSize=15;fillColor=#dae8fc;strokeColor=#6c8ebf;" vertex="1" parent="pFfiCdRPxZVRYwWleE4n-46">
          <mxGeometry width="395" height="60" as="geometry" />
        </mxCell>
        <mxCell id="pFfiCdRPxZVRYwWleE4n-48" value="User 3" style="ellipse;whiteSpace=wrap;html=1;fontSize=15;fillColor=#d5e8d4;strokeColor=#82b366;" vertex="1" parent="pFfiCdRPxZVRYwWleE4n-46">
          <mxGeometry x="15" y="5" width="70" height="50" as="geometry" />
        </mxCell>
        <mxCell id="pFfiCdRPxZVRYwWleE4n-49" value="" style="group" vertex="1" connectable="0" parent="pFfiCdRPxZVRYwWleE4n-39">
          <mxGeometry y="180" width="395" height="60" as="geometry" />
        </mxCell>
        <mxCell id="pFfiCdRPxZVRYwWleE4n-50" value="Comment #4" style="rounded=0;whiteSpace=wrap;html=1;fontSize=15;fillColor=#dae8fc;strokeColor=#6c8ebf;" vertex="1" parent="pFfiCdRPxZVRYwWleE4n-49">
          <mxGeometry width="395" height="60" as="geometry" />
        </mxCell>
        <mxCell id="pFfiCdRPxZVRYwWleE4n-51" value="User 4" style="ellipse;whiteSpace=wrap;html=1;fontSize=15;fillColor=#d5e8d4;strokeColor=#82b366;" vertex="1" parent="pFfiCdRPxZVRYwWleE4n-49">
          <mxGeometry x="15" y="5" width="70" height="50" as="geometry" />
        </mxCell>
        <mxCell id="pFfiCdRPxZVRYwWleE4n-52" value="" style="group" vertex="1" connectable="0" parent="pFfiCdRPxZVRYwWleE4n-39">
          <mxGeometry y="240" width="395" height="60" as="geometry" />
        </mxCell>
        <mxCell id="pFfiCdRPxZVRYwWleE4n-53" value="" style="rounded=0;whiteSpace=wrap;html=1;fontSize=15;" vertex="1" parent="pFfiCdRPxZVRYwWleE4n-52">
          <mxGeometry width="395" height="60" as="geometry" />
        </mxCell>
        <mxCell id="pFfiCdRPxZVRYwWleE4n-54" value="Type new comment" style="rounded=0;whiteSpace=wrap;html=1;fontSize=15;fillColor=#f5f5f5;strokeColor=#666666;fontColor=#333333;" vertex="1" parent="pFfiCdRPxZVRYwWleE4n-52">
          <mxGeometry x="15" y="10" width="360" height="30" as="geometry" />
        </mxCell>
      </root>
    </mxGraphModel>
  </diagram>
</mxfile>
